# xmcd
#
# Track frame offsets:
#	150
#	22488
#	42318
#	60959
#	77300
#	98256
#	119908
#	142004
#	159202
#	179707
#	200589
#	234875
#
# Disc length: 3223 seconds
#
# Revision: 69
# Processed by: cddbd v1.5.2PL0 Copyright (c) Steve Scherf et al.
# Submitted via: EasyCDDAExtractor 15.3.0.1
#
DISCID=9b0c950c
DTITLE=Madonna - American Life
DYEAR=2003
DGENRE=Pop
TTITLE0=American Life
TTITLE1=Hollywood
TTITLE2=I'm So Stupid
TTITLE3=Love Profusion
TTITLE4=Nobody Knows Me
TTITLE5=Nothing Fails
TTITLE6=Intervention
TTITLE7=X-Static Process
TTITLE8=Mother And Father
TTITLE9=Die Another Day (From The MGM Motion Picture Die Another Day)
TTITLE10=Easy Ride
TTITLE11=Data
EXTD=YEAR: 2003
EXTT0=
EXTT1=
EXTT2=
EXTT3=
EXTT4=
EXTT5=
EXTT6=
EXTT7=
EXTT8=
EXTT9=
EXTT10=
EXTT11=
PLAYORDER=
